# xmcd CD database file
#
# Track frame offsets:
#	150
#	12500
#	25802
#	39080
#	50465
#	67757
#	79457
#	93885
#	105890
#	119092
#	136572
#	152375
#
# Disc length: 2181 seconds
#
# Revision: 2
# Processed by: cddbd v1.5.2PL0 Copyright (c) Steve Scherf et al.
# Submitted via: CDex 1.97
#
DISCID=8208830c
DTITLE=Otis Redding - Otis blue - O.R. sings soul
DYEAR=1966
DGENRE=Soul
TTITLE0=ole man trouble
TTITLE1=respect
TTITLE2=change gonna come
TTITLE3=down in the valley
TTITLE4=i've been loving you too long
TTITLE5=shake
TTITLE6=my girl
TTITLE7=wonderful world
TTITLE8=rock me baby
TTITLE9=satisfaction
TTITLE10=you don't miss your water
TTITLE11=Love Have Mercy
EXTD=YEAR: 1966
EXTT0=
EXTT1=
EXTT2=
EXTT3=
EXTT4=
EXTT5=
EXTT6=
EXTT7=
EXTT8=
EXTT9=
EXTT10=
EXTT11=
PLAYORDER=
